<svg xmlns="http://www.w3.org/2000/svg" width="256" height="256" viewBox="0 0 100 100">
<rect width="100" height="100" rx="50" fill="#47A603"></rect>
<path d="M27.88 61.95L27.88 61.95Q29.76 61.95 31.23 61.33Q32.71 60.70 33.73 59.58Q34.75 58.45 35.29 56.84Q35.83 55.23 35.83 53.24L35.83 53.24L35.83 32.46L42.28 32.46L42.28 53.24Q42.28 56.34 41.29 58.96Q40.29 61.59 38.42 63.50Q36.55 65.41 33.88 66.48Q31.22 67.54 27.88 67.54L27.88 67.54Q24.55 67.54 21.88 66.48Q19.22 65.41 17.36 63.50Q15.50 61.59 14.50 58.96Q13.51 56.34 13.51 53.24L13.51 53.24L13.51 32.46L19.96 32.46L19.96 53.22Q19.96 55.21 20.50 56.82Q21.04 58.42 22.05 59.56Q23.06 60.70 24.54 61.33Q26.01 61.95 27.88 61.95ZM66.28 52.76L66.28 52.76Q66.69 53.53 67.04 54.36Q67.39 55.18 67.72 56.02L67.72 56.02Q68.06 55.16 68.42 54.32Q68.78 53.48 69.19 52.71L69.19 52.71L79.46 33.49Q79.65 33.13 79.86 32.91Q80.06 32.70 80.31 32.60Q80.56 32.50 80.88 32.48Q81.19 32.46 81.62 32.46L81.62 32.46L86.49 32.46L86.49 67.16L80.80 67.16L80.80 44.74Q80.80 44.12 80.84 43.38Q80.88 42.63 80.95 41.86L80.95 41.86L70.46 61.54Q70.10 62.22 69.52 62.59Q68.95 62.96 68.18 62.96L68.18 62.96L67.29 62.96Q66.52 62.96 65.95 62.59Q65.37 62.22 65.01 61.54L65.01 61.54L54.38 41.79Q54.48 42.58 54.51 43.34Q54.55 44.10 54.55 44.74L54.55 44.74L54.55 67.16L48.86 67.16L48.86 32.46L53.73 32.46Q54.16 32.46 54.48 32.48Q54.79 32.50 55.04 32.60Q55.29 32.70 55.51 32.91Q55.72 33.13 55.92 33.49L55.92 33.49L66.28 52.76Z" fill="#fff"></path>
</svg>